<?xml version="1.0" standalone="no"?>
<!DOCTYPE svg PUBLIC "-//W3C//DTD SVG 20010904//EN"
 "http://www.w3.org/TR/2001/REC-SVG-20010904/DTD/svg10.dtd">
<svg version="1.0" xmlns="http://www.w3.org/2000/svg"
 width="1024.000000pt" height="1024.000000pt" viewBox="0 0 1024.000000 1024.000000"
 preserveAspectRatio="xMidYMid meet">
<metadata>
Created by potrace 1.16, written by Peter Selinger 2001-2019
</metadata>
<g transform="translate(0.000000,1024.000000) scale(0.100000,-0.100000)"
fill="#000000" stroke="none">
<path d="M2783 9560 c-108 -23 -228 -110 -299 -218 -51 -75 -100 -208 -114
-308 -10 -69 -9 -91 4 -145 28 -107 90 -182 184 -221 l52 -22 0 -72 0 -72
-117 -90 c-65 -50 -485 -365 -932 -701 l-815 -610 -45 6 c-99 11 -192 -44
-237 -142 -50 -105 -15 -236 80 -303 27 -20 33 -32 47 -110 9 -48 48 -244 87
-437 39 -192 88 -444 111 -560 74 -385 108 -555 136 -675 28 -119 33 -157 28
-220 -3 -36 0 -84 5 -107 9 -38 7 -44 -14 -64 -34 -31 -64 -99 -64 -141 0 -37
-26 -76 -40 -61 -5 4 -23 46 -41 92 -46 116 -68 146 -106 145 -39 -2 -83 -31
-83 -56 0 -25 72 -205 145 -364 46 -100 49 -112 32 -138 -9 -13 -17 -41 -19
-62 -3 -37 -5 -39 -41 -42 l-37 -3 0 71 c0 62 -3 74 -25 95 -32 33 -79 33
-100 1 -13 -19 -15 -57 -13 -232 3 -190 5 -209 21 -212 16 -3 17 11 17 192 0
164 2 197 16 210 8 9 20 14 25 11 13 -9 12 -555 -1 -555 -13 0 -91 120 -119
184 -37 85 -192 306 -219 313 -30 7 -86 -19 -106 -50 -24 -36 -8 -72 97 -219
111 -157 151 -218 146 -221 -2 -1 -13 -7 -24 -13 -20 -11 -20 -23 -23 -512
l-2 -501 -43 -34 c-23 -19 -78 -55 -122 -81 -73 -42 -85 -46 -147 -46 l-68 0
0 -1130 0 -1130 5120 0 5120 0 0 1130 0 1130 -135 0 -135 0 5 122 c8 180 12
216 30 240 11 17 15 50 15 134 0 62 -3 119 -6 128 -5 14 -33 16 -206 16 -110
0 -198 4 -196 8 2 4 45 45 96 91 81 73 110 111 83 111 -12 0 -81 -48 -125 -88
-22 -19 -41 -31 -43 -26 -2 6 22 122 53 260 102 453 113 509 114 547 0 92 -95
293 -172 362 -52 48 -151 94 -217 102 -28 3 -51 9 -51 12 0 21 212 169 299
209 75 34 121 64 121 80 0 23 -41 12 -153 -43 -119 -58 -156 -84 -263 -180
l-67 -60 -157 -3 -158 -3 -5 28 c-3 15 -6 53 -7 83 0 30 -7 93 -14 140 -8 47
-11 89 -8 95 3 5 7 18 7 27 1 10 4 19 6 21 2 1 31 21 64 43 33 23 150 94 260
159 269 158 455 275 455 286 0 18 -41 8 -107 -27 -181 -96 -560 -320 -636
-375 -22 -16 -45 -28 -50 -26 -11 3 -32 62 -42 115 -17 91 -80 239 -139 325
l-27 39 38 41 c59 65 292 282 353 328 111 85 330 271 330 280 0 25 -48 2 -137
-64 -198 -148 -363 -295 -543 -483 l-55 -57 -2 79 c-4 130 -23 486 -29 525 -4
29 1 45 32 90 75 111 101 137 131 133 25 -3 25 -3 5 4 l-24 7 23 30 c72 94
226 257 358 379 83 76 160 145 171 153 22 15 26 38 10 48 -38 23 -510 -439
-609 -595 -32 -51 -94 -130 -98 -126 -3 2 -11 87 -19 188 -18 244 -18 518 1
665 16 121 60 333 75 362 5 9 23 72 40 141 17 69 53 200 80 291 56 193 62 232
38 237 -13 2 -22 -15 -42 -80 -30 -101 -88 -295 -130 -441 -18 -59 -35 -105
-38 -102 -3 3 -3 -5 -1 -18 3 -14 -4 -62 -16 -108 -27 -110 -49 -252 -57 -366
-4 -51 -10 -93 -13 -93 -9 1 -71 87 -71 99 0 17 -154 193 -279 319 -136 136
-195 182 -213 164 -8 -8 34 -57 165 -189 175 -177 244 -255 342 -388 l51 -70
18 -260 c24 -367 26 -405 19 -405 -4 0 -45 39 -93 88 -148 150 -314 275 -523
396 -97 56 -121 64 -131 47 -7 -11 52 -54 259 -190 161 -106 301 -218 419
-336 59 -59 75 -81 80 -112 8 -58 29 -503 24 -509 -3 -2 -24 20 -47 50 -47 63
-138 139 -261 219 -80 51 -413 224 -597 310 l-81 38 -32 94 c-48 138 -90 217
-125 237 -17 10 -55 24 -85 31 -54 14 -55 15 -72 68 -22 71 -22 104 2 173 10
31 29 103 41 159 12 56 39 150 60 209 21 58 43 135 49 170 6 35 24 86 40 113
15 28 35 75 44 105 22 74 22 248 1 346 -17 74 -17 75 6 122 33 66 33 197 1
260 -52 99 -142 165 -224 164 -42 -1 -39 -7 -23 73 8 36 -13 107 -40 141 -32
40 -39 26 -20 -41 19 -62 14 -129 -10 -161 -13 -18 -14 -17 -15 11 0 58 -21
105 -70 158 -85 93 -237 167 -375 182 -114 13 -275 -40 -363 -119 -36 -32 -41
-34 -137 -38 -81 -4 -111 -10 -160 -32 -76 -35 -155 -96 -190 -147 -27 -37
-29 -39 -46 -23 -27 24 -24 46 11 79 24 23 27 31 16 37 -17 10 -95 -6 -136
-27 -107 -55 -144 -237 -74 -366 31 -55 87 -109 147 -140 20 -11 37 -21 37
-24 0 -12 -82 11 -132 38 -40 20 -67 44 -87 73 -26 41 -29 42 -35 21 -9 -33
-7 -98 4 -135 8 -30 7 -32 -6 -21 -71 59 -73 229 -4 316 24 30 25 43 6 43 -24
0 -83 -78 -95 -125 -34 -137 17 -318 114 -404 40 -35 35 -38 -19 -16 -55 23
-126 93 -152 150 -33 70 -33 155 1 221 30 59 31 68 6 54 -27 -14 -58 -68 -70
-122 -13 -59 1 -147 35 -207 22 -40 23 -46 9 -61 -14 -16 -14 -21 1 -59 33
-82 120 -131 233 -131 59 0 57 8 41 -149 -6 -52 -8 -103 -4 -113 3 -9 23 -28
45 -41 30 -18 36 -26 25 -30 -22 -9 -20 -26 5 -35 20 -8 21 -15 20 -123 -1
-77 8 -196 29 -364 46 -364 57 -411 117 -467 51 -48 149 -58 284 -28 76 16 66
-4 -56 -123 l-118 -114 7 -44 c3 -24 7 -52 9 -61 3 -24 -191 -118 -203 -99 -4
7 -13 45 -20 84 -36 211 -223 1142 -240 1199 -25 84 -95 164 -178 205 l-57 28
-2012 -1 -2013 -1 -55 -27 c-105 -52 -162 -153 -152 -270 4 -55 138 -753 187
-981 11 -49 27 -130 35 -179 8 -48 24 -127 35 -175 11 -47 26 -125 35 -173 8
-48 28 -153 44 -235 29 -146 74 -393 84 -465 6 -37 -8 -62 -22 -40 -4 6 -27
15 -51 21 -56 13 -62 7 -87 -79 l-19 -65 -87 0 -88 0 7 106 c7 119 0 143 -47
163 -29 12 -30 16 -33 80 -1 48 2 70 12 78 27 23 90 124 101 163 16 58 13 125
-8 170 -24 54 -93 115 -163 145 -55 24 -57 27 -68 75 -5 28 -24 115 -40 195
-17 80 -60 289 -95 465 -35 176 -76 379 -90 451 l-27 131 35 46 c38 50 63 131
53 178 -5 28 0 34 103 115 60 48 146 114 193 148 138 100 300 221 1547 1156
41 30 79 54 84 52 6 -2 32 2 58 8 75 18 159 121 159 195 0 23 4 25 43 25 78 0
78 -1 31 -150 -23 -74 -27 -103 -28 -220 -1 -116 2 -146 22 -210 27 -83 82
-198 119 -247 21 -29 30 -33 71 -33 94 0 280 61 487 161 258 124 575 343 653
453 51 71 51 89 -7 185 -95 156 -188 246 -333 319 -87 43 -225 82 -294 82 -39
0 -43 3 -66 48 -20 39 -30 48 -58 52 -27 4 -39 14 -63 55 -118 196 -194 309
-221 329 -56 42 -99 59 -163 62 -45 2 -71 9 -89 23 -32 25 -43 26 -89 4 -34
-16 -36 -16 -58 5 -54 51 -163 79 -244 62z m185 -85 c46 -30 49 -37 27 -55
-19 -16 -19 -39 0 -60 14 -15 12 -23 -14 -76 -17 -32 -32 -72 -34 -89 -6 -48
16 -123 66 -222 26 -51 47 -95 47 -98 0 -3 -24 -21 -54 -40 l-53 -34 -49 15
c-78 23 -176 -7 -234 -72 -34 -39 -63 -43 -118 -15 -87 45 -131 126 -132 242
0 179 109 386 253 482 69 46 108 57 187 53 52 -2 75 -9 108 -31z m370 -69 c33
-17 78 -64 69 -72 -3 -3 -21 4 -39 17 -27 20 -45 24 -104 24 -61 0 -77 -4
-119 -30 -27 -17 -63 -50 -80 -74 -26 -37 -30 -52 -32 -113 -2 -80 -6 -90 -21
-51 -20 54 -22 81 -7 129 27 92 154 183 253 184 29 0 65 -6 80 -14z m642 -562
c92 -27 214 -92 271 -144 65 -59 53 -65 -22 -11 -147 104 -273 143 -471 145
-75 1 -134 4 -130 8 30 30 253 32 352 2z m-862 -71 c18 -39 21 -57 14 -98 -6
-41 -11 -51 -30 -53 -13 -2 -22 2 -22 10 0 7 -16 39 -35 72 -20 32 -35 59 -33
60 2 1 18 14 36 29 19 15 37 27 41 27 4 0 17 -21 29 -47z m-224 -3 c22 0 108
-82 122 -117 19 -45 17 -70 -10 -130 -43 -91 -139 -126 -231 -84 -70 32 -105
86 -105 162 0 22 7 53 14 68 19 36 80 89 109 95 12 3 31 7 42 9 11 3 26 3 33
1 8 -2 19 -4 26 -4z m401 -170 c-83 -165 -110 -289 -102 -467 5 -127 -3 -151
-22 -62 -25 113 -7 299 40 425 23 60 94 174 109 174 6 0 -6 -32 -25 -70z
m3592 -111 c95 -22 156 -85 173 -180 10 -56 1 -55 -28 3 -26 52 -84 102 -145
125 -40 14 -147 17 -147 3 0 -5 8 -10 18 -10 32 0 151 -74 139 -87 -2 -1 -23
7 -48 20 -37 19 -60 22 -149 22 -93 -1 -111 -4 -160 -27 -162 -79 -211 -126
-96 -93 30 9 75 15 98 13 l43 -3 -85 -35 c-98 -40 -195 -47 -228 -17 -23 21
-32 21 -32 2 0 -22 68 -85 93 -86 20 0 20 -1 3 -8 -18 -7 -58 -3 -155 14 -42
8 -43 7 -32 -13 6 -11 23 -30 37 -41 15 -12 25 -24 22 -27 -3 -3 -34 2 -68 11
-34 9 -65 14 -67 11 -11 -11 21 -67 57 -100 53 -48 97 -60 199 -53 47 3 95 8
106 13 18 7 18 6 7 -9 -41 -49 -235 -74 -331 -42 -65 21 -128 76 -142 125 -13
41 -29 45 -29 6 0 -85 86 -199 170 -225 64 -20 75 -35 20 -26 -130 20 -219
101 -251 229 -9 38 -14 45 -21 32 -14 -25 -13 -123 2 -141 7 -9 10 -18 8 -21
-12 -11 -79 83 -93 130 -18 59 -18 69 -5 117 11 39 83 129 104 129 7 0 11 -16
11 -41 0 -31 6 -46 24 -60 39 -31 60 -23 130 50 98 101 230 159 340 148 51 -6
56 -4 104 34 127 100 270 139 404 108z m-4209 -79 c17 -16 38 -30 46 -30 48 0
76 21 -1284 -988 -250 -185 -474 -354 -499 -375 l-44 -39 -38 44 c-25 29 -34
47 -28 55 6 6 136 105 291 220 154 114 451 336 659 493 208 157 479 361 603
453 124 93 230 175 237 183 16 20 24 18 57 -16z m1757 -20 c11 -18 -20 -54
-117 -132 -147 -120 -308 -222 -503 -319 -227 -112 -471 -195 -482 -163 -6 19
127 136 252 220 264 178 536 317 745 380 87 26 97 28 105 14z m3041 -283 c38
-20 79 -67 101 -116 19 -43 22 -156 5 -173 -9 -9 -12 -3 -12 28 0 93 -86 200
-191 239 l-64 23 34 15 c37 16 75 11 127 -16z m-1572 -791 c26 -53 53 -89 91
-123 51 -45 55 -54 69 -118 8 -39 17 -97 21 -130 10 -90 12 -95 46 -95 65 0
69 8 69 143 1 194 23 259 89 265 110 11 194 -210 146 -388 -18 -67 -40 -99
-88 -125 -42 -23 -48 -52 -17 -80 29 -26 83 -13 116 29 l27 33 99 -96 c153
-148 263 -211 368 -211 48 0 50 -1 65 -37 33 -79 34 -77 -43 -91 -157 -27
-326 -96 -468 -192 l-72 -48 -6 41 c-3 23 -10 93 -16 156 -6 62 -17 125 -25
140 -14 25 -14 24 -15 -29 -1 -99 -64 -189 -164 -236 -89 -42 -141 -31 -175
34 -35 67 -92 504 -97 737 l-3 180 -46 35 -45 34 6 111 c9 166 14 170 68 61z
m-5161 -269 c45 -19 105 -89 113 -132 22 -122 -58 -225 -175 -225 -77 0 -131
33 -165 102 -33 65 -33 101 0 166 44 88 139 125 227 89z m4763 -14 c23 -12 60
-43 83 -69 51 -58 66 -107 121 -389 23 -115 50 -255 61 -310 11 -55 35 -183
54 -285 19 -102 47 -238 61 -303 14 -65 24 -120 22 -122 -2 -2 -15 -6 -30 -10
-23 -6 -28 -3 -32 17 -3 12 -44 221 -91 463 -169 869 -169 867 -248 915 -31
19 -56 20 -919 20 l-886 0 13 -52 c8 -29 32 -150 55 -268 22 -118 47 -242 55
-276 21 -89 30 -178 18 -171 -6 4 -13 21 -16 39 -3 18 -24 112 -45 208 -22 96
-50 231 -62 300 -12 69 -26 146 -32 173 l-10 47 -1103 0 -1103 0 -30 -25 c-16
-14 -33 -36 -36 -50 -4 -15 26 -185 73 -423 44 -218 105 -530 136 -692 31
-162 65 -340 75 -395 11 -55 40 -212 65 -350 26 -137 68 -362 94 -500 27 -137
61 -315 75 -395 57 -308 72 -347 139 -370 25 -8 402 -10 1371 -7 734 2 1338 2
1340 -1 5 -5 -12 -43 -23 -52 -4 -3 -20 -36 -37 -75 l-30 -70 -1300 -3 c-1429
-2 -1360 -5 -1437 59 -38 31 -97 121 -97 148 0 20 72 8 112 -19 l33 -23 -31
31 c-24 23 -43 32 -75 34 l-43 3 -18 100 c-11 55 -44 228 -74 385 -30 157 -68
357 -84 446 -32 180 -116 616 -160 829 -16 77 -40 196 -54 265 -99 484 -189
965 -189 1020 -2 98 40 160 138 206 l50 24 2005 -3 2005 -2 41 -22z m-341
-233 c0 -34 -2 -35 -40 -38 -32 -3 -48 -12 -82 -48 -23 -24 -41 -49 -38 -56 2
-7 6 -46 10 -85 5 -59 4 -73 -8 -73 -10 0 -16 25 -24 98 l-10 97 51 53 c40 41
56 51 74 47 17 -4 22 -1 22 13 0 24 10 34 30 30 10 -2 15 -15 15 -38z m-905
13 c0 -5 15 -18 33 -31 28 -19 45 -22 105 -20 69 1 72 0 118 -38 25 -21 55
-46 65 -54 23 -20 41 -186 18 -178 -9 3 -17 29 -21 74 -7 68 -8 70 -64 122
l-57 52 -77 0 c-69 0 -80 3 -118 31 -46 34 -53 49 -22 49 11 0 20 -3 20 -7z
m-138 -80 c8 -10 18 -26 21 -35 6 -16 21 -18 125 -18 148 0 159 -9 176 -137 5
-42 4 -53 -7 -53 -10 0 -16 18 -21 59 -10 89 -22 98 -141 105 -78 4 -106 2
-129 -9 -63 -33 -126 -5 -126 55 0 47 70 70 102 33z m1301 -54 c29 -16 37 -28
37 -61 0 -39 -40 -64 -78 -50 -15 6 -76 13 -136 15 -107 5 -109 4 -132 -20
-13 -14 -24 -30 -24 -34 0 -5 -7 -9 -15 -9 -23 0 -18 25 11 59 l26 31 114 0
114 0 0 24 c0 14 10 32 22 40 27 19 33 19 61 5z m-4626 -176 c11 -54 62 -303
112 -553 51 -250 99 -482 106 -515 8 -32 13 -60 12 -61 -1 -1 -31 4 -66 10
-74 14 -67 1 -101 171 -124 621 -200 1008 -200 1020 0 9 15 15 48 18 26 2 52
4 58 5 6 1 20 -39 31 -95z m3150 23 c4 -7 19 -19 33 -26 14 -7 55 -42 92 -77
70 -69 102 -82 189 -83 25 0 54 -7 65 -15 17 -15 11 -15 -76 -9 -52 3 -104 10
-115 14 -11 4 -49 38 -84 74 -57 60 -67 66 -93 61 -47 -11 -77 32 -46 63 16
16 25 15 35 -2z m1073 -169 c10 -2 18 -25 26 -77 18 -115 61 -356 78 -438 9
-40 16 -84 16 -98 l0 -24 -177 -2 c-173 -2 -175 -2 -63 -8 98 -5 84 -6 -102
-8 l-216 -2 -7 43 c-4 23 -9 51 -11 62 -2 11 -11 72 -20 135 -8 63 -27 184
-43 267 l-27 153 185 2 c170 3 323 0 361 -5z m-1030 -37 c11 -11 20 -27 20
-35 0 -13 26 -15 170 -15 144 0 170 -2 170 -15 0 -13 -27 -15 -179 -15 -109 0
-182 -4 -186 -10 -10 -16 -61 -11 -78 8 -55 61 24 141 83 82z m3361 -70 c47
-5 103 -16 125 -23 44 -15 63 -45 114 -184 l29 -82 -47 15 c-67 21 -275 28
-424 15 -157 -13 -514 -101 -558 -136 -8 -7 -49 -25 -90 -40 -41 -16 -122 -50
-179 -77 -57 -26 -107 -48 -112 -48 -4 0 -10 19 -14 41 -7 41 -6 42 66 116
168 170 423 327 609 374 134 35 330 46 481 29z m-2971 -125 c0 -12 -20 -15
-120 -15 -66 0 -120 -4 -120 -8 0 -25 30 -32 137 -32 94 0 113 -3 113 -15 0
-12 -20 -15 -117 -15 -106 0 -119 2 -140 22 -13 12 -23 29 -23 38 0 34 21 40
147 40 103 0 123 -2 123 -15z m1178 -51 c25 -16 31 -65 10 -82 -34 -26 -54
-22 -114 23 l-59 44 -87 1 c-88 0 -116 12 -57 24 50 10 130 7 164 -6 27 -9 36
-8 56 5 24 18 48 15 87 -9z m-1682 -21 c7 -44 57 -312 120 -641 45 -239 51
-292 34 -292 -5 0 -10 -9 -10 -21 0 -14 -5 -19 -17 -17 -25 5 -28 29 -4 35 12
3 21 9 21 13 0 4 -11 63 -25 131 -14 68 -50 255 -81 414 -30 160 -61 316 -68
347 -14 55 -11 64 16 67 4 1 10 -16 14 -36z m198 -25 c14 -6 28 -18 31 -27 4
-14 24 -16 150 -13 126 3 145 1 145 -12 0 -14 -20 -16 -133 -16 -129 0 -134
-1 -157 -25 -44 -47 -120 -24 -120 37 0 27 30 68 50 68 5 0 20 -5 34 -12z
m3375 -135 c40 -16 11 -24 -142 -39 -187 -19 -221 -26 -225 -46 -2 -12 10 -17
65 -22 123 -12 362 -65 386 -86 4 -4 -46 -13 -112 -20 -73 -7 -125 -17 -131
-25 -15 -18 -10 -20 115 -45 128 -25 492 -119 580 -150 33 -11 132 -39 220
-61 88 -23 165 -44 172 -48 6 -3 -214 -5 -490 -3 -303 2 -571 -1 -677 -8 -182
-12 -456 -53 -620 -95 -230 -57 -476 -141 -547 -186 -21 -13 -26 -10 -92 55
-118 118 -218 172 -306 164 -46 -4 -58 -25 -18 -33 75 -16 106 -29 174 -73
124 -81 242 -231 303 -386 61 -151 103 -378 93 -496 -19 -229 -174 -542 -409
-824 -85 -103 -315 -313 -412 -376 -125 -81 -132 -88 -113 -107 13 -13 21 -13
53 -3 55 17 199 94 245 131 21 17 39 26 39 21 0 -15 -119 -123 -180 -163 -88
-58 -249 -135 -343 -164 -85 -26 -110 -44 -64 -46 109 -6 223 16 296 57 49 27
51 28 51 15 0 -19 -78 -85 -129 -108 -51 -23 -209 -53 -279 -53 -29 0 -33 -3
-30 -22 5 -35 99 -61 223 -62 78 0 107 4 133 18 19 9 36 15 38 13 11 -11 -52
-69 -104 -94 -50 -25 -68 -28 -152 -28 -98 0 -161 18 -232 67 -27 19 -48 17
-48 -4 0 -18 72 -78 138 -115 75 -42 148 -63 222 -63 l55 0 -25 -20 c-33 -25
-95 -40 -167 -40 -130 0 -269 111 -356 285 -76 153 -137 385 -137 527 0 44 3
49 52 92 29 25 56 46 60 46 4 0 12 19 19 43 6 23 51 137 101 252 50 116 133
318 185 450 52 132 110 278 128 325 19 47 51 137 73 200 35 101 82 228 154
410 32 82 117 207 189 278 135 134 304 228 764 424 315 134 593 228 739 248
78 11 444 6 475 -7z m-1834 -19 c24 -25 15 -73 -18 -98 -34 -25 -54 -16 -82
40 l-20 39 -60 -3 c-76 -4 -185 7 -185 18 0 5 53 11 118 13 64 1 143 4 174 5
41 1 61 -2 73 -14z m-1176 -160 c3 -2 0 -9 -6 -15 -7 -7 -66 -10 -177 -8
l-166 4 0 -30 c0 -16 7 -61 15 -99 15 -73 15 -82 -8 -73 -9 3 -18 38 -25 100
-15 122 -15 125 5 129 23 4 357 -3 362 -8z m1217 -84 c17 -41 30 -78 27 -82
-11 -19 -49 -4 -96 37 l-52 45 -117 0 c-72 0 -118 4 -118 10 0 6 49 10 128 10
l127 -1 45 -39 c24 -22 46 -37 49 -35 2 3 -6 28 -19 55 l-23 50 -83 0 c-77 0
-103 7 -87 24 4 4 48 5 97 4 l90 -3 32 -75z m-1196 10 c0 -19 -7 -20 -135 -20
l-135 0 0 -27 c0 -29 31 -255 36 -262 2 -2 11 4 20 14 15 15 16 24 6 80 -15
81 -15 132 1 142 6 4 66 8 131 9 104 1 121 -1 137 -17 30 -30 23 -49 -42 -112
-49 -48 -59 -64 -55 -82 3 -13 12 -73 20 -134 8 -61 18 -115 21 -120 3 -5 14
-7 24 -4 18 5 19 8 5 51 -26 88 -21 110 45 177 l58 60 -17 88 c-9 48 -13 90
-8 93 10 7 15 -5 33 -90 7 -38 20 -73 27 -77 9 -6 -5 -27 -54 -76 l-67 -68 10
-75 c6 -41 17 -85 25 -97 21 -32 18 -80 -5 -93 -56 -29 -118 15 -107 75 4 18
-5 98 -19 180 l-24 149 59 54 c34 30 60 62 60 73 0 18 -8 19 -115 19 -97 0
-117 -3 -122 -16 -3 -9 0 -54 7 -101 l12 -85 -27 -28 c-25 -26 -26 -32 -20
-81 6 -46 12 -57 39 -74 39 -26 47 -74 17 -104 -28 -28 -57 -26 -86 4 -29 28
-33 79 -10 105 14 16 13 36 -15 209 -33 213 -36 246 -17 258 6 4 73 10 147 14
74 3 136 6 138 7 1 1 2 -7 2 -18z m206 -87 c3 -16 14 -62 24 -103 19 -80 52
-265 55 -314 2 -29 44 -76 67 -76 13 0 6 85 -18 227 -14 82 -14 94 0 115 13
19 13 34 4 95 -11 70 -7 97 11 77 4 -5 14 -44 21 -87 12 -71 11 -79 -5 -97
-16 -18 -16 -25 -1 -132 10 -62 21 -135 26 -163 11 -65 0 -79 -52 -65 -55 16
-87 59 -86 118 0 55 -23 204 -52 323 -11 46 -20 90 -20 97 0 23 20 12 26 -15z
m229 5 c23 -100 34 -202 24 -215 -23 -27 21 -183 51 -183 15 0 12 60 -12 242
-19 148 -20 194 -3 176 10 -9 65 -411 60 -430 -9 -26 -57 -23 -84 6 -26 28
-67 206 -49 217 8 5 8 33 -1 96 -6 49 -11 95 -11 101 0 21 19 13 25 -10z m150
-10 c4 -17 10 -62 14 -99 6 -65 8 -70 60 -123 29 -31 56 -56 60 -56 9 0 31
-46 31 -65 0 -40 -68 -59 -102 -28 -22 19 -24 70 -3 93 13 14 10 21 -27 63
-33 39 -41 57 -44 95 -1 26 -6 71 -9 100 -7 57 9 73 20 20z m-4044 -215 l36
-5 16 -87 c9 -47 30 -151 46 -231 16 -80 33 -180 38 -222 l9 -77 -67 -60 c-36
-33 -69 -57 -73 -54 -3 4 -6 19 -6 34 0 28 5 35 45 64 15 11 15 13 3 9 -13 -4
-18 2 -23 33 -4 21 -33 168 -65 327 l-58 288 32 -7 c17 -3 47 -9 67 -12z m185
-63 c79 -53 108 -98 108 -164 -1 -55 -27 -121 -68 -171 -13 -16 -27 -27 -31
-24 -3 4 -21 85 -41 180 -19 96 -37 184 -39 197 -7 31 4 28 71 -18z m6260 -40
c17 -78 154 -916 154 -946 0 -2 -78 -4 -172 -4 -190 0 -236 -8 -333 -58 -118
-59 -215 -171 -262 -300 -24 -66 -66 -240 -147 -612 -26 -118 -60 -271 -76
-340 -16 -69 -31 -141 -35 -160 -3 -19 -24 -109 -45 -200 -22 -91 -62 -273
-91 -405 -53 -247 -157 -710 -164 -733 -3 -9 -14 -8 -47 4 -72 28 -142 88
-193 164 -26 39 -50 69 -52 66 -13 -12 11 -97 46 -168 l39 -78 -65 0 -64 0
-40 86 c-23 48 -46 83 -52 81 -8 -2 -13 -34 -15 -85 l-3 -82 -64 0 -65 0 -2
298 c-2 163 -3 403 -3 532 -1 129 -2 363 -4 519 l-3 284 33 63 c19 35 36 64
39 64 3 0 21 -62 39 -137 42 -176 132 -445 150 -451 12 -4 13 14 7 114 -3 66
-9 130 -12 144 -3 14 21 -22 53 -80 101 -180 176 -291 242 -363 56 -60 66 -66
79 -53 13 12 9 21 -31 73 -92 120 -218 381 -256 528 -19 73 -51 238 -48 242 2
2 54 -59 114 -134 102 -127 238 -273 254 -273 4 0 12 7 19 15 10 12 0 28 -55
92 -88 102 -146 192 -215 328 -53 104 -105 234 -96 242 2 2 16 -17 31 -43 51
-88 212 -263 242 -264 28 0 21 23 -21 76 -76 92 -206 300 -194 308 2 1 26 15
53 31 28 16 73 45 100 66 78 59 259 268 277 321 6 16 15 25 21 21 6 -3 7 -1 3
5 -7 12 17 56 25 48 2 -2 5 11 6 30 3 28 -1 34 -16 34 -11 0 -30 -15 -42 -32
-65 -94 -262 -289 -276 -274 -3 3 13 26 35 53 101 122 177 283 133 283 -5 0
-21 -19 -36 -42 -35 -54 -115 -148 -125 -148 -4 0 3 40 16 89 32 124 39 218
24 346 -22 199 -98 440 -173 550 -15 21 -23 42 -19 46 4 3 66 27 137 52 363
129 861 225 1159 223 l69 -1 13 -55z m350 -30 c64 -250 226 -840 239 -873 8
-20 15 -40 15 -42 0 -3 -87 -5 -193 -5 l-193 0 -27 178 c-16 97 -44 281 -62
407 -32 213 -58 365 -71 408 -5 16 4 17 132 15 l138 -3 22 -85z m540 -168 c78
-141 187 -342 243 -447 55 -104 115 -214 131 -243 17 -29 30 -55 30 -57 0 -3
-139 -5 -308 -5 l-309 0 -41 133 c-40 130 -53 178 -172 622 -32 121 -62 228
-66 238 -6 16 8 17 172 17 l179 0 141 -258z m-4542 -29 c3 -16 14 -77 25 -138
11 -60 29 -160 40 -221 12 -61 23 -139 26 -175 l5 -64 -20 60 c-21 63 -30 110
-80 387 -35 196 -34 178 -16 178 8 0 17 -12 20 -27z m1436 -50 c0 -3 -11 -34
-23 -67 -13 -34 -36 -94 -51 -133 l-28 -73 -306 -1 c-169 0 -405 -1 -525 -1
l-219 0 7 -46 c7 -48 37 -116 55 -127 7 -4 7 -12 0 -25 -15 -28 -12 -108 10
-253 11 -73 22 -142 25 -154 5 -23 7 -23 190 -23 l185 0 12 25 c9 20 9 59 -1
163 -17 183 -21 215 -33 230 -8 9 45 12 261 12 149 0 271 -2 271 -4 0 -2 -3
-11 -6 -20 -5 -14 -28 -16 -150 -16 l-145 0 5 -92 c2 -51 7 -112 10 -135 3
-24 8 -61 11 -83 l5 -39 -97 -3 c-84 -3 -98 -6 -101 -20 -3 -17 9 -18 152 -18
140 0 177 -6 148 -24 -5 -3 -174 -6 -375 -7 -260 -1 -367 -5 -368 -13 0 -6 0
-31 1 -56 3 -84 -9 -80 254 -80 l234 0 4 -25 5 -25 -278 0 c-154 0 -279 3
-279 7 0 4 -11 73 -24 153 -35 208 -50 301 -96 605 -22 149 -42 282 -45 297
-3 18 3 34 20 52 l24 26 631 0 c346 0 630 -3 630 -7z m-3985 -307 c12 -15 5
-148 -20 -433 -8 -94 -15 -212 -15 -262 l0 -91 -46 0 -47 0 6 183 c5 157 34
492 52 595 6 31 9 33 33 27 15 -3 32 -12 37 -19z m-122 -126 l-8 -55 -39 3
c-50 5 -70 -15 -96 -97 -12 -36 -28 -76 -36 -88 -9 -14 -14 -52 -15 -105 l-1
-83 -21 45 c-58 120 16 343 113 343 22 0 31 6 38 26 5 15 22 42 38 61 34 39
38 31 27 -50z m485 5 c3 -2 -17 -82 -43 -177 -26 -95 -58 -216 -71 -268 -14
-52 -34 -123 -45 -157 l-21 -63 -40 0 c-37 0 -40 2 -34 23 3 12 22 87 41 167
34 138 115 418 136 469 8 20 14 22 41 17 17 -3 34 -8 36 -11z m71 -108 l11
-78 -33 -32 c-28 -27 -39 -51 -65 -147 -18 -63 -39 -121 -47 -129 -13 -14 -15
-13 -15 4 0 11 9 52 20 90 10 39 26 99 36 135 9 36 21 72 25 80 15 26 17 33
30 109 13 87 23 80 38 -32z m-954 12 c10 -28 38 -94 62 -147 62 -131 103 -233
103 -254 0 -10 4 -18 8 -18 8 0 62 -125 62 -143 0 -4 -4 -7 -10 -7 -5 0 -10 6
-10 13 0 7 -13 34 -30 60 -16 26 -30 53 -30 58 0 6 -11 25 -25 41 -34 40 -55
83 -136 271 -66 155 -67 158 -46 167 34 14 34 13 52 -41z m3787 -109 c10 -80
17 -163 16 -185 l-3 -40 -152 0 c-83 0 -154 3 -157 6 -3 3 -12 52 -21 110 -8
57 -19 133 -24 167 -5 35 -7 70 -4 78 4 12 34 14 166 12 l161 -3 18 -145z
m-2787 -125 c4 -47 11 -87 16 -91 17 -10 9 -40 -25 -93 -44 -68 -43 -67 -66
-46 -29 26 -47 12 -65 -50 -14 -47 -20 -55 -41 -55 -13 0 -24 2 -24 4 0 9 33
84 55 126 12 25 37 92 55 150 49 159 49 161 70 150 14 -7 19 -28 25 -95z
m-665 -140 l0 -195 -29 0 c-28 0 -28 0 -40 88 -6 49 -11 136 -11 195 l0 107
40 0 40 0 0 -195z m8304 175 c82 -10 177 -54 226 -105 l35 -36 -49 22 -49 21
-1091 -1 c-733 -1 -1104 -5 -1131 -12 -178 -48 -273 -170 -320 -411 -14 -69
-43 -204 -65 -300 -23 -95 -55 -236 -71 -313 -16 -77 -59 -270 -94 -430 -137
-620 -417 -1927 -440 -2057 -5 -28 -12 -38 -26 -38 -23 0 -24 22 -4 105 21 88
23 85 -45 85 -33 0 -60 2 -60 4 0 3 16 78 36 168 19 90 57 269 84 398 69 329
167 783 260 1200 71 319 110 496 226 1025 57 263 72 316 113 400 46 98 75 133
155 189 68 48 129 74 196 86 63 11 2030 11 2114 0z m-8012 -95 c-2 -22 -15
-93 -29 -157 -25 -112 -28 -118 -51 -118 l-25 0 7 103 c4 56 9 128 13 160 l6
58 41 -3 41 -3 -3 -40z m433 -275 c14 -74 35 -153 46 -177 20 -41 84 -112 126
-140 33 -22 122 -43 183 -43 l55 0 12 -60 c31 -164 202 -317 408 -366 33 -7
76 -14 95 -15 29 0 31 -2 15 -9 -16 -7 -11 -9 22 -9 62 -1 171 27 231 59 l54
29 -7 -42 c-9 -51 -16 -59 -53 -62 -44 -4 -78 -31 -110 -88 -26 -46 -35 -54
-76 -65 -35 -9 -53 -21 -75 -53 -41 -56 -91 -191 -91 -245 0 -40 -3 -44 -27
-49 -16 -3 -54 -12 -85 -20 -72 -19 -78 -19 -78 -1 0 8 -27 124 -60 258 -68
280 -102 362 -178 428 -63 56 -116 82 -182 89 -53 6 -55 7 -58 37 -4 44 -34
54 -162 54 l-110 0 0 235 c0 202 -2 235 -15 235 -8 0 -15 2 -15 5 0 11 102
157 106 153 2 -3 15 -65 29 -138z m-1448 -22 l38 -53 -22 -22 -23 -22 65 -85
c73 -98 90 -126 76 -126 -6 0 -40 39 -76 88 -36 48 -78 101 -94 118 -16 17
-42 50 -57 74 l-28 42 23 19 c36 30 56 23 98 -33z m557 36 c3 -9 6 -110 6
-225 l0 -209 -40 0 -40 0 -1 158 c0 86 -4 182 -8 213 -4 31 -5 62 -3 68 6 18
79 14 86 -5z m-118 -69 c4 -8 1 -21 -5 -29 -8 -9 -11 -65 -9 -172 l3 -159 -35
0 -35 0 -3 175 c-1 96 0 180 2 187 8 19 75 17 82 -2z m864 -15 c0 -20 -7 -20
-350 -20 -343 0 -350 0 -350 20 0 20 7 20 350 20 343 0 350 0 350 -20z m7873
-137 c54 -30 107 -99 107 -140 0 -29 -17 -30 -25 0 -4 12 -18 37 -32 55 -49
66 20 62 -1080 62 l-998 0 -52 -30 c-58 -33 -95 -81 -118 -150 -8 -25 -48
-202 -89 -395 -41 -192 -102 -476 -136 -630 -34 -154 -72 -332 -85 -395 -13
-63 -40 -187 -59 -275 -30 -136 -44 -200 -81 -362 -3 -15 -13 -23 -25 -23 -26
0 -25 19 1 135 27 121 74 338 229 1060 72 336 145 673 161 750 31 143 68 232
113 274 13 12 52 37 87 56 l64 34 983 1 984 0 51 -27z m-6437 -210 c-4 -32
-13 -100 -19 -152 l-13 -95 -77 -39 c-101 -51 -181 -65 -285 -50 -112 17 -175
44 -277 120 -90 68 -135 125 -135 171 0 12 12 40 26 62 l27 40 380 0 380 0 -7
-57z m859 -13 c58 -167 172 -291 368 -396 l58 -31 -47 -29 c-48 -30 -144 -141
-190 -219 l-26 -45 -129 0 -129 0 0 68 c1 88 17 349 30 482 5 58 13 136 16
173 3 41 10 67 16 65 6 -2 21 -33 33 -68z m482 -60 c2 -100 7 -141 27 -204 27
-87 24 -109 -19 -120 -51 -13 -190 70 -309 183 -67 65 -132 171 -150 244 l-6
27 227 -2 228 -3 2 -125z m233 99 c-5 -17 -14 -37 -20 -44 -6 -7 -17 -36 -26
-65 -12 -41 -28 -64 -67 -100 l-52 -48 -8 26 c-4 15 -11 80 -14 145 l-6 117
101 0 101 0 -9 -31z m-3583 -336 l-2 -268 -317 -3 -318 -2 0 263 c0 145 3 267
7 270 3 4 147 7 319 7 l313 0 -2 -267z m843 12 l0 -175 -393 0 -393 0 -2 175
-2 175 395 0 395 0 0 -175z m178 61 c98 -49 156 -143 206 -331 47 -179 96
-398 90 -404 -3 -3 -24 -15 -47 -26 l-42 -20 -3 -82 -3 -83 -119 0 -120 0 0
134 0 134 30 7 c17 4 35 15 40 25 14 27 13 346 -1 373 -18 33 -28 37 -96 37
l-63 0 0 130 0 130 40 0 c23 0 61 -10 88 -24z m1358 -148 c19 -17 98 -103 175
-189 l139 -158 -67 -3 c-55 -2 -68 -6 -71 -20 -3 -17 13 -18 233 -18 209 0
236 -2 231 -15 -32 -84 -41 -137 -39 -240 2 -140 28 -243 88 -349 25 -43 44
-81 42 -83 -7 -6 -243 75 -352 122 -60 26 -186 86 -280 134 -93 47 -174 88
-179 90 -5 2 -7 -11 -4 -29 l5 -32 -71 4 c-49 2 -87 11 -121 28 -57 28 -181
143 -266 247 -61 74 -112 113 -147 113 -23 0 -29 -16 -34 -80 -3 -32 -6 -35
-33 -35 -28 0 -30 2 -29 37 1 46 60 191 91 225 19 19 31 24 61 21 36 -3 38 -1
67 53 47 87 51 91 111 87 50 -3 53 -2 108 50 59 56 79 60 134 25 21 -13 26
-13 40 1 60 53 117 58 168 14z m1044 -132 c0 -55 48 -224 92 -325 77 -175 145
-260 306 -380 83 -63 90 -84 35 -108 -32 -13 -48 -14 -106 -4 -117 19 -203 79
-260 179 -25 45 -32 51 -43 40 -11 -11 -11 -23 5 -75 21 -69 63 -135 116 -181
40 -36 38 -39 -8 -16 -100 50 -186 191 -222 363 -20 96 -11 295 20 416 30 120
65 168 65 91z m-103 -58 c-61 -217 -54 -565 12 -650 10 -13 28 -41 39 -63 50
-97 170 -182 290 -205 60 -12 173 -9 217 5 39 13 -27 -36 -84 -63 -46 -21 -63
-24 -135 -20 -180 9 -329 131 -386 316 -11 36 -24 70 -29 76 -24 29 -43 146
-42 256 1 119 19 210 58 295 62 134 89 158 60 53z m-87 -10 c-127 -237 -161
-444 -104 -618 48 -145 173 -301 292 -366 l47 -25 -40 5 c-132 14 -248 107
-322 257 -60 122 -77 194 -77 324 1 93 5 122 28 190 15 44 41 104 58 133 30
54 133 172 149 172 4 0 -9 -33 -31 -72z m-2222 -105 l-3 -168 -477 -3 -477 -2
0 162 c0 89 3 166 5 170 3 4 219 8 480 8 l474 0 -2 -167z m7890 97 c4 -3 5
-45 2 -95 l-5 -90 -209 -3 -208 -2 5 22 c3 13 11 52 17 88 7 36 14 71 16 78 3
11 43 13 189 11 102 -2 189 -6 193 -9z m-8898 -318 l0 -273 -314 2 -314 1 -6
36 c-3 21 -6 144 -6 276 l0 238 320 -3 320 -4 0 -273z m4553 208 l27 -13 0
-154 c0 -99 -4 -153 -10 -153 -6 0 -50 15 -98 34 -48 18 -106 37 -130 41 -23
4 -42 8 -42 11 0 2 11 29 25 60 l25 57 71 -7 70 -7 -3 28 c-2 23 -8 28 -33 31
-16 1 -40 5 -53 8 l-23 5 28 37 c50 69 46 68 146 22z m4309 -272 c-1 -79 -5
-158 -8 -175 l-5 -33 -230 0 c-215 0 -230 1 -225 18 3 9 20 85 37 167 17 83
33 153 36 158 2 4 93 7 201 7 l197 0 -3 -142z m-7931 68 c2 -2 3 -65 1 -140
l-3 -136 -437 2 -437 3 -3 124 c-1 69 0 131 2 138 4 10 91 13 439 13 239 0
436 -2 438 -4z m637 -90 c29 -8 72 -26 96 -40 43 -25 136 -119 136 -137 0 -6
-112 -8 -267 -7 l-268 3 -3 61 -3 61 59 26 c105 47 165 55 250 33z m2842 -28
c19 -6 51 -22 70 -34 19 -13 50 -28 68 -35 52 -18 40 -35 -29 -43 -72 -7 -329
-8 -329 -1 0 9 73 120 84 128 13 9 85 1 136 -15z m-1942 -239 c107 -58 172
-99 172 -110 0 -5 -746 -9 -1800 -9 l-1800 0 0 43 c0 23 -3 59 -6 80 l-7 37
1682 0 1682 0 77 -41z m2075 35 l37 -7 0 -73 0 -73 -270 -3 c-149 -2 -270 -2
-270 -1 0 0 20 32 45 70 25 37 45 71 45 75 0 4 15 9 33 11 54 7 340 7 380 1z
m4482 -2 c6 -4 9 -39 7 -79 l-4 -73 -340 0 -340 0 7 57 c4 31 11 67 16 80 l9
23 317 0 c175 0 323 -4 328 -8z m-9385 -491 c19 2 583 4 1253 4 l1218 0 -1
-664 c0 -365 -3 -667 -6 -672 -2 -4 -11 -6 -19 -2 -13 4 -15 65 -15 424 l0
419 -995 0 -995 0 0 -182 c-1 -101 0 -292 0 -425 l1 -243 -26 0 -25 0 0 650
c0 612 -1 650 -17 650 -10 0 -142 2 -293 4 -151 2 -348 5 -437 5 -159 1 -163
1 -163 22 l0 22 243 -8 c133 -5 258 -6 277 -4z m4738 -13 c3 -15 -5 -18 -52
-18 l-56 0 0 -116 c0 -105 -2 -115 -17 -112 -16 3 -18 18 -21 115 l-3 113
-196 2 c-181 3 -195 4 -180 19 14 14 48 16 269 15 232 -1 253 -2 256 -18z
m705 -311 c33 -21 67 -74 67 -102 0 -19 -1 -19 -18 3 -10 12 -31 32 -47 42
-29 19 -57 20 -1372 20 l-1343 0 0 23 c0 13 3 27 7 30 4 4 608 6 1343 5 1268
-3 1337 -4 1363 -21z m692 -53 c-1 -5 -4 -33 -9 -63 -6 -39 -11 -50 -18 -40
-7 10 -8 7 -4 -10 5 -25 -29 -212 -83 -451 -16 -69 -32 -142 -35 -163 -6 -35
-29 -58 -42 -44 -3 3 12 88 35 189 22 101 52 239 66 308 52 251 63 292 78 287
7 -2 12 -8 12 -13z m-769 -45 c22 -18 18 -105 -6 -129 -20 -20 -33 -20 -1258
-20 l-1239 0 -23 25 c-29 31 -32 85 -6 114 18 19 32 21 230 24 116 1 678 2
1249 0 777 -1 1042 -5 1053 -14z m-2089 -271 c9 -33 10 -33 66 -31 51 2 57 0
62 -20 3 -12 21 -89 41 -172 55 -234 94 -408 94 -423 0 -10 -21 -12 -87 -10
l-88 3 -27 110 c-26 104 -118 547 -118 566 0 5 11 9 24 9 18 0 25 -8 33 -32z
m1817 -9 c6 -30 6 -30 63 -28 l58 3 12 -39 c9 -31 85 -362 128 -562 5 -23 3
-23 -84 -23 l-90 0 -10 38 c-10 39 -91 435 -110 537 -6 33 -14 70 -17 82 -4
15 -1 22 13 25 25 6 30 3 37 -33z"/>
<path d="M2795 8726 c-83 -37 -112 -134 -64 -212 24 -40 59 -57 113 -57 64 1
102 25 132 84 23 47 24 54 12 92 -25 79 -122 126 -193 93z"/>
<path d="M6267 7174 c-4 -4 -7 -38 -7 -75 0 -59 4 -72 27 -99 22 -26 24 -35
15 -49 -26 -35 -34 -61 -28 -84 14 -58 66 -31 87 45 15 57 -2 202 -29 238 -19
25 -52 37 -65 24z"/>
<path d="M625 7016 c-42 -18 -83 -69 -91 -112 -24 -129 102 -226 216 -165 105
55 102 214 -4 265 -51 24 -87 28 -121 12z"/>
<path d="M4547 6303 c-4 -8 62 -439 77 -510 l8 -33 209 -2 c115 -1 217 -2 227
-2 19 -1 19 18 2 114 -31 169 -50 284 -61 358 l-11 82 -224 0 c-122 0 -225 -3
-227 -7z"/>
<path d="M6062 4157 c-6 -7 -25 -44 -42 -81 -66 -148 -193 -342 -325 -496
-125 -147 -411 -380 -581 -475 -89 -50 -70 -65 27 -23 112 49 234 121 334 196
122 91 306 277 388 392 106 148 225 407 227 493 0 11 -17 8 -28 -6z"/>
<path d="M4058 4883 c-47 -54 -46 -106 4 -148 38 -32 74 -30 102 8 44 59 12
149 -56 155 -23 2 -39 -3 -50 -15z"/>
<path d="M4223 4825 c-3 -9 -3 -18 0 -21 6 -6 453 -6 705 0 155 4 162 4 162
-15 0 -18 -12 -19 -367 -21 -203 -1 -399 -2 -438 -2 -63 -1 -70 -3 -70 -21 0
-20 8 -20 440 -23 439 -2 440 -2 458 19 20 24 23 69 5 87 -9 9 -123 12 -450
12 -386 0 -439 -2 -445 -15z"/>
<path d="M4205 4393 c18 -137 36 -257 38 -259 1 -1 59 -4 130 -5 l127 -4 0 33
c0 37 -18 214 -26 250 -4 21 -7 22 -139 22 l-135 0 5 -37z"/>
<path d="M1157 1673 c-4 -3 -7 -93 -7 -200 l0 -193 995 0 995 0 0 194 c0 192
0 194 -22 200 -32 8 -1953 8 -1961 -1z"/>
</g>
</svg>
